<svg width="34" height="8" viewBox="0 0 34 8" fill="none" xmlns="http://www.w3.org/2000/svg">
<path d="M7.55556 4C7.55556 5.06087 7.15754 6.07828 6.44907 6.82843C5.7406 7.57857 4.77971 8 3.77778 8C2.77585 8 1.81496 7.57857 1.10649 6.82843C0.398015 6.07828 0 5.06087 0 4C0 2.93913 0.398015 1.92172 1.10649 1.17157C1.81496 0.421428 2.77585 0 3.77778 0C4.77971 0 5.7406 0.421428 6.44907 1.17157C7.15754 1.92172 7.55556 2.93913 7.55556 4ZM20.7778 4C20.7778 5.06087 20.3798 6.07828 19.6713 6.82843C18.9628 7.57857 18.0019 8 17 8C15.9981 8 15.0372 7.57857 14.3287 6.82843C13.6202 6.07828 13.2222 5.06087 13.2222 4C13.2222 2.93913 13.6202 1.92172 14.3287 1.17157C15.0372 0.421428 15.9981 0 17 0C18.0019 0 18.9628 0.421428 19.6713 1.17157C20.3798 1.92172 20.7778 2.93913 20.7778 4ZM34 4C34 5.06087 33.602 6.07828 32.8935 6.82843C32.185 7.57857 31.2242 8 30.2222 8C29.2203 8 28.2594 7.57857 27.5509 6.82843C26.8425 6.07828 26.4444 5.06087 26.4444 4C26.4444 2.93913 26.8425 1.92172 27.5509 1.17157C28.2594 0.421428 29.2203 0 30.2222 0C31.2242 0 32.185 0.421428 32.8935 1.17157C33.602 1.92172 34 2.93913 34 4Z" fill="black" fill-opacity="0.63"/>
</svg>
